<svg width="48" height="48" viewBox="0 0 48 48" fill="none" xmlns="http://www.w3.org/2000/svg">
<g filter="url(#filter0_d_1058_4454)">
<circle cx="24" cy="20" r="20" fill="#FCFDFF"/>
</g>
<path d="M21.1037 19.8811C21.1037 20.505 20.6072 21.0108 19.9946 21.0108C19.3822 21.0108 18.8856 20.5051 18.8856 19.8811C18.8856 19.2572 19.3822 18.7514 19.9946 18.7514C20.6072 18.7515 21.1037 19.2573 21.1037 19.8811ZM25.6054 18.7515C24.9929 18.7515 24.4963 19.2572 24.4963 19.8812C24.4963 20.5051 24.9929 21.0108 25.6054 21.0108C26.2178 21.0108 26.7144 20.5051 26.7144 19.8812C26.7144 19.2573 26.2179 18.7515 25.6054 18.7515ZM33.6 19.2514V21.3984C33.6 22.4762 32.7422 23.35 31.684 23.35H30.2936C28.9159 27.2465 25.3978 29.6 22.8 29.6C20.2022 29.6 16.6841 27.2465 15.3064 23.35H13.916C12.8578 23.35 12 22.4762 12 21.3983V19.2514C12 18.5097 12.4063 17.8647 13.0045 17.5345C13.0246 14.4864 13.8967 12.1058 15.6005 10.4601C17.2904 8.82776 19.7127 8 22.8 8C25.8873 8 28.3096 8.82776 29.9995 10.4601C31.7033 12.1058 32.5754 14.4864 32.5955 17.5344C33.1937 17.8647 33.6 18.5097 33.6 19.2514ZM29.5447 19.8883C29.5447 19.3861 29.5194 18.9142 29.4822 18.457C28.6318 17.6645 27.0881 17.0632 25.1398 16.8398C25.3956 17.1328 25.6166 17.5182 25.7506 18.0256C24.5573 17.0679 22.2148 17.2959 20.443 15.1529C20.3414 15.0332 20.2536 14.9189 20.1776 14.8144C20.1768 14.8131 20.1758 14.8121 20.1749 14.8109L20.1751 14.811C19.8599 14.3768 19.7524 14.1185 19.7464 14.4044C19.6944 16.8675 17.9805 18.7877 16.0773 19.0586C16.0653 19.3294 16.0554 19.603 16.0554 19.8883C16.0554 20.9294 16.2223 21.8782 16.5061 22.7333C17.5752 24.0469 19.3406 24.4178 20.9033 24.5161C21.1933 24.046 21.8442 23.7178 22.6022 23.7178C23.6298 23.7178 24.4629 24.3201 24.4629 25.0632C24.4629 25.8063 23.6298 26.4086 22.6022 26.4086C21.8117 26.4086 21.1381 26.0516 20.8685 25.5489C19.7764 25.4843 18.5758 25.2946 17.5058 24.7799C19.0105 27.0392 21.3432 28.2338 22.8 28.2338C25.0891 28.2338 29.5447 25.2882 29.5447 19.8883ZM31.4419 17.2997C31.32 11.9808 28.3394 9.17106 22.8 9.17106C17.2606 9.17106 14.28 11.9808 14.1581 17.2997H14.8952C15.1648 15.507 15.7345 14.0326 16.5994 12.899C17.9778 11.0925 20.0639 10.1765 22.8 10.1765C25.5361 10.1765 27.6222 11.0925 29.0006 12.899C29.8655 14.0326 30.4352 15.507 30.7048 17.2997H31.4419Z" fill="#353D6C"/>
<defs>
<filter id="filter0_d_1058_4454" x="0" y="0" width="48" height="48" filterUnits="userSpaceOnUse" color-interpolation-filters="sRGB">
<feFlood flood-opacity="0" result="BackgroundImageFix"/>
<feColorMatrix in="SourceAlpha" type="matrix" values="0 0 0 0 0 0 0 0 0 0 0 0 0 0 0 0 0 0 127 0" result="hardAlpha"/>
<feOffset dy="4"/>
<feGaussianBlur stdDeviation="2"/>
<feComposite in2="hardAlpha" operator="out"/>
<feColorMatrix type="matrix" values="0 0 0 0 0.207843 0 0 0 0 0.239216 0 0 0 0 0.423529 0 0 0 0.2 0"/>
<feBlend mode="normal" in2="BackgroundImageFix" result="effect1_dropShadow_1058_4454"/>
<feBlend mode="normal" in="SourceGraphic" in2="effect1_dropShadow_1058_4454" result="shape"/>
</filter>
</defs>
</svg>
